<svg xmlns="http://www.w3.org/2000/svg" xmlns:xlink="http://www.w3.org/1999/xlink" width="1920" zoomAndPan="magnify" viewBox="0 0 1440 809.999993" height="1080" preserveAspectRatio="xMidYMid meet" version="1.0"><defs><g/><clipPath id="f444e6b2c1"><rect x="0" width="673" y="0" height="143"/></clipPath></defs><path fill="#277af0" d="M 889.933594 415.761719 L 857.867188 415.761719 L 857.867188 315.367188 C 857.867188 298.148438 845.703125 285.957031 828.773438 285.957031 C 811.839844 285.957031 800.246094 298.121094 800.246094 315.367188 L 800.246094 415.761719 L 768.183594 415.761719 L 768.183594 315.367188 C 768.183594 298.148438 756.304688 285.957031 739.371094 285.957031 C 722.441406 285.957031 710.847656 298.121094 710.847656 315.367188 L 710.847656 415.761719 L 678.78125 415.761719 L 678.78125 315.679688 C 678.78125 281.53125 704.910156 257.777344 739.058594 257.777344 C 759.246094 257.777344 775.007812 266.085938 784.800781 280.046875 C 794.90625 266.085938 810.640625 257.777344 830.542969 257.777344 C 865.292969 257.777344 889.933594 281.53125 889.933594 315.679688 Z M 889.933594 415.761719 " fill-opacity="1" fill-rule="nonzero"/><path fill="#277af0" d="M 1033.671875 308.257812 C 1024.761719 295.179688 1011.113281 285.984375 991.210938 285.984375 C 962.402344 285.984375 941.898438 307.972656 941.898438 338.839844 C 941.898438 369.703125 962.402344 391.691406 991.210938 391.691406 C 1011.710938 391.691406 1025.960938 381.582031 1034.582031 368.21875 L 1053.601562 387.523438 C 1041.722656 406.539062 1019.164062 420.5 991.238281 420.5 C 943.414062 420.5 909.261719 385.75 909.261719 339.125 C 909.261719 292.496094 944.296875 257.746094 991.238281 257.746094 C 1017.679688 257.746094 1039.066406 269.027344 1053.316406 288.640625 L 1033.726562 308.230469 Z M 1033.671875 308.257812 " fill-opacity="1" fill-rule="nonzero"/><path fill="#277af0" d="M 1118.558594 321.621094 L 1138.144531 331.128906 C 1156.847656 340.039062 1171.125 351.628906 1171.125 375.074219 C 1171.125 401.511719 1150.339844 420.5 1116.789062 420.5 C 1083.238281 420.5 1066.90625 401.796875 1061.539062 381.011719 L 1086.179688 367.363281 C 1088.863281 380.125 1099.542969 393.488281 1117.671875 393.488281 C 1130.4375 393.488281 1139.34375 386.949219 1139.34375 374.785156 C 1139.34375 366.164062 1133.40625 360.539062 1119.160156 354 L 1101.625 345.691406 C 1082.925781 337.066406 1068.363281 326.390625 1068.363281 301.148438 C 1068.363281 277.390625 1089.433594 257.777344 1117.960938 257.777344 C 1146.484375 257.777344 1163.101562 273.222656 1171.125 292.238281 L 1148.253906 305.316406 C 1143.199219 293.4375 1133.121094 284.246094 1118.558594 284.246094 C 1106.679688 284.246094 1098.371094 290.78125 1098.371094 300.863281 C 1098.371094 310.054688 1104.3125 315.109375 1118.558594 321.648438 Z M 1118.558594 321.621094 " fill-opacity="1" fill-rule="nonzero"/><path fill="#277af0" d="M 254.367188 359.226562 L 303.792969 273.652344 C 321.039062 243.757812 353.246094 225.167969 387.769531 225.167969 L 480.707031 225.167969 C 513.515625 225.167969 544.097656 242.8125 560.515625 271.253906 L 581.671875 307.914062 L 600.546875 340.609375 L 601.601562 342.40625 C 613.878906 363.652344 613.910156 390.035156 601.6875 411.304688 L 601.601562 411.449219 C 589.324219 432.722656 566.425781 445.914062 541.871094 445.914062 L 300.082031 445.914062 L 300.167969 445.742188 C 281.265625 444.34375 263.988281 433.605469 254.367188 416.960938 C 244.089844 399.171875 244.089844 377.070312 254.367188 359.253906 Z M 541.839844 413.191406 C 554.71875 413.191406 566.738281 406.28125 573.222656 395.144531 L 573.277344 395.03125 C 579.730469 383.839844 579.730469 369.902344 573.277344 358.710938 L 562.800781 340.582031 L 511.546875 340.582031 C 500.953125 340.582031 491.074219 346.261719 485.761719 355.457031 L 481.28125 363.222656 L 452.414062 413.191406 Z M 414.664062 413.191406 L 415.320312 412.046875 L 452.414062 347.773438 C 452.785156 347.089844 453.183594 346.433594 453.613281 345.804688 C 453.667969 345.71875 453.726562 345.605469 453.8125 345.492188 L 457.496094 339.09375 C 468.601562 319.851562 489.332031 307.886719 511.546875 307.886719 L 543.925781 307.886719 L 532.21875 287.585938 C 521.625 269.226562 501.894531 257.832031 480.707031 257.832031 C 459.523438 257.832031 439.90625 269.167969 429.285156 287.441406 L 356.671875 413.164062 L 414.695312 413.164062 Z M 282.71875 400.683594 C 287.144531 408.421875 295.457031 413.191406 304.390625 413.191406 L 318.953125 413.191406 L 400.902344 271.253906 L 408.640625 257.859375 L 387.769531 257.859375 C 364.867188 257.859375 343.539062 270.195312 332.0625 290.011719 L 282.664062 375.585938 C 278.210938 383.324219 278.210938 392.917969 282.722656 400.710938 Z M 282.71875 400.683594 " fill-opacity="1" fill-rule="nonzero"/><g transform="matrix(1, 0, 0, 1, 399, 446)"><g clip-path="url(#f444e6b2c1)"><g fill="#142238" fill-opacity="1"><g transform="translate(1.200293, 110.821169)"><g><path d="M 59.78125 -74.578125 L 59.78125 -62.1875 L 38.25 -62.1875 L 38.25 0 L 23.5625 0 L 23.5625 -62.1875 L 2.046875 -62.1875 L 2.046875 -74.578125 Z M 59.78125 -74.578125 "/></g></g></g><g fill="#142238" fill-opacity="1"><g transform="translate(55.780764, 110.821169)"><g><path d="M 55.59375 -24.9375 L 19.4375 -24.9375 C 19.84375 -20.039062 21.234375 -16.476562 23.609375 -14.25 C 25.992188 -12.03125 29.242188 -10.921875 33.359375 -10.921875 C 36.585938 -10.921875 39.203125 -11.519531 41.203125 -12.71875 C 43.210938 -13.925781 44.832031 -15.753906 46.0625 -18.203125 L 47.140625 -18.203125 L 56.515625 -12.1875 C 54.679688 -8.25 51.910156 -5.050781 48.203125 -2.59375 C 44.492188 -0.144531 39.546875 1.078125 33.359375 1.078125 C 27.546875 1.078125 22.519531 -0.0234375 18.28125 -2.234375 C 14.050781 -4.453125 10.785156 -7.742188 8.484375 -12.109375 C 6.191406 -16.484375 5.046875 -21.816406 5.046875 -28.109375 C 5.046875 -34.503906 6.253906 -39.894531 8.671875 -44.28125 C 11.085938 -48.664062 14.351562 -51.9375 18.46875 -54.09375 C 22.582031 -56.25 27.207031 -57.328125 32.34375 -57.328125 C 40.300781 -57.328125 46.394531 -55.21875 50.625 -51 C 54.863281 -46.789062 56.984375 -40.601562 56.984375 -32.4375 C 56.984375 -29.476562 56.878906 -27.1875 56.671875 -25.5625 Z M 43.453125 -34.078125 C 43.316406 -38.359375 42.320312 -41.476562 40.46875 -43.4375 C 38.625 -45.394531 35.914062 -46.375 32.34375 -46.375 C 25.195312 -46.375 20.992188 -42.273438 19.734375 -34.078125 Z M 43.453125 -34.078125 "/></g></g><g transform="translate(116.941497, 110.821169)"><g><path d="M 32.796875 1.078125 C 27.359375 1.078125 22.546875 -0.0507812 18.359375 -2.3125 C 14.179688 -4.582031 10.914062 -7.910156 8.5625 -12.296875 C 6.21875 -16.679688 5.046875 -21.953125 5.046875 -28.109375 C 5.046875 -34.296875 6.21875 -39.582031 8.5625 -43.96875 C 10.914062 -48.351562 14.164062 -51.675781 18.3125 -53.9375 C 22.457031 -56.195312 27.203125 -57.328125 32.546875 -57.328125 C 44.410156 -57.328125 52.007812 -53.03125 55.34375 -44.4375 L 45.65625 -37.5 L 44.578125 -37.5 C 43.421875 -40.144531 41.914062 -42.113281 40.0625 -43.40625 C 38.207031 -44.695312 35.703125 -45.34375 32.546875 -45.34375 C 28.460938 -45.34375 25.28125 -43.929688 23 -41.109375 C 20.726562 -38.285156 19.59375 -33.953125 19.59375 -28.109375 C 19.59375 -22.328125 20.75 -18.015625 23.0625 -15.171875 C 25.375 -12.335938 28.617188 -10.921875 32.796875 -10.921875 C 35.859375 -10.921875 38.453125 -11.742188 40.578125 -13.390625 C 42.703125 -15.035156 44.222656 -17.40625 45.140625 -20.5 L 46.21875 -20.609375 L 56.265625 -15.09375 C 54.835938 -10.332031 52.191406 -6.445312 48.328125 -3.4375 C 44.472656 -0.425781 39.296875 1.078125 32.796875 1.078125 Z M 32.796875 1.078125 "/></g></g><g transform="translate(174.939623, 110.821169)"><g><path d="M 8.109375 0 L 8.109375 -78.859375 L 22.234375 -78.859375 L 22.234375 -48.921875 L 23.3125 -48.71875 C 25.1875 -51.46875 27.484375 -53.585938 30.203125 -55.078125 C 32.921875 -56.578125 36.203125 -57.328125 40.046875 -57.328125 C 52.453125 -57.328125 58.65625 -50.289062 58.65625 -36.21875 L 58.65625 0 L 44.53125 0 L 44.53125 -34.4375 C 44.53125 -38.28125 43.765625 -41.066406 42.234375 -42.796875 C 40.703125 -44.535156 38.320312 -45.40625 35.09375 -45.40625 C 31.144531 -45.40625 28.015625 -44.085938 25.703125 -41.453125 C 23.390625 -38.816406 22.234375 -34.707031 22.234375 -29.125 L 22.234375 0 Z M 8.109375 0 "/></g></g><g transform="translate(240.844266, 110.821169)"><g><path d="M 8.109375 0 L 8.109375 -56.265625 L 21.671875 -56.265625 L 21.671875 -48 L 22.75 -47.75 C 26.25 -54.132812 31.925781 -57.328125 39.78125 -57.328125 C 46.28125 -57.328125 51.050781 -55.554688 54.09375 -52.015625 C 57.132812 -48.484375 58.65625 -43.335938 58.65625 -36.578125 L 58.65625 0 L 44.53125 0 L 44.53125 -34.84375 C 44.53125 -38.582031 43.78125 -41.273438 42.28125 -42.921875 C 40.789062 -44.578125 38.394531 -45.40625 35.09375 -45.40625 C 31.050781 -45.40625 27.894531 -44.09375 25.625 -41.46875 C 23.363281 -38.851562 22.234375 -34.738281 22.234375 -29.125 L 22.234375 0 Z M 8.109375 0 "/></g></g><g transform="translate(306.748909, 110.821169)"><g><path d="M 32.703125 1.078125 C 27.191406 1.078125 22.351562 -0.0507812 18.1875 -2.3125 C 14.019531 -4.582031 10.785156 -7.898438 8.484375 -12.265625 C 6.191406 -16.640625 5.046875 -21.921875 5.046875 -28.109375 C 5.046875 -34.296875 6.191406 -39.582031 8.484375 -43.96875 C 10.785156 -48.351562 14.019531 -51.675781 18.1875 -53.9375 C 22.351562 -56.195312 27.191406 -57.328125 32.703125 -57.328125 C 38.210938 -57.328125 43.046875 -56.195312 47.203125 -53.9375 C 51.367188 -51.675781 54.609375 -48.351562 56.921875 -43.96875 C 59.234375 -39.582031 60.390625 -34.296875 60.390625 -28.109375 C 60.390625 -21.921875 59.234375 -16.640625 56.921875 -12.265625 C 54.609375 -7.898438 51.367188 -4.582031 47.203125 -2.3125 C 43.046875 -0.0507812 38.210938 1.078125 32.703125 1.078125 Z M 32.703125 -10.921875 C 41.441406 -10.921875 45.8125 -16.648438 45.8125 -28.109375 C 45.8125 -34.054688 44.6875 -38.414062 42.4375 -41.1875 C 40.195312 -43.957031 36.953125 -45.34375 32.703125 -45.34375 C 23.960938 -45.34375 19.59375 -39.597656 19.59375 -28.109375 C 19.59375 -16.648438 23.960938 -10.921875 32.703125 -10.921875 Z M 32.703125 -10.921875 "/></g></g><g transform="translate(372.143454, 110.821169)"><g><path d="M 23.359375 1.078125 C 18.296875 1.078125 14.425781 -0.289062 11.75 -3.03125 C 9.082031 -5.769531 7.75 -9.925781 7.75 -15.5 L 7.75 -78.859375 L 21.890625 -78.859375 L 21.890625 -16.0625 C 21.890625 -12.632812 23.316406 -10.921875 26.171875 -10.921875 C 26.984375 -10.921875 27.847656 -11.054688 28.765625 -11.328125 L 29.484375 -11.125 L 30.765625 -0.25 C 29.972656 0.15625 28.929688 0.476562 27.640625 0.71875 C 26.347656 0.957031 24.921875 1.078125 23.359375 1.078125 Z M 23.359375 1.078125 "/></g></g><g transform="translate(404.483657, 110.821169)"><g><path d="M 32.703125 1.078125 C 27.191406 1.078125 22.351562 -0.0507812 18.1875 -2.3125 C 14.019531 -4.582031 10.785156 -7.898438 8.484375 -12.265625 C 6.191406 -16.640625 5.046875 -21.921875 5.046875 -28.109375 C 5.046875 -34.296875 6.191406 -39.582031 8.484375 -43.96875 C 10.785156 -48.351562 14.019531 -51.675781 18.1875 -53.9375 C 22.351562 -56.195312 27.191406 -57.328125 32.703125 -57.328125 C 38.210938 -57.328125 43.046875 -56.195312 47.203125 -53.9375 C 51.367188 -51.675781 54.609375 -48.351562 56.921875 -43.96875 C 59.234375 -39.582031 60.390625 -34.296875 60.390625 -28.109375 C 60.390625 -21.921875 59.234375 -16.640625 56.921875 -12.265625 C 54.609375 -7.898438 51.367188 -4.582031 47.203125 -2.3125 C 43.046875 -0.0507812 38.210938 1.078125 32.703125 1.078125 Z M 32.703125 -10.921875 C 41.441406 -10.921875 45.8125 -16.648438 45.8125 -28.109375 C 45.8125 -34.054688 44.6875 -38.414062 42.4375 -41.1875 C 40.195312 -43.957031 36.953125 -45.34375 32.703125 -45.34375 C 23.960938 -45.34375 19.59375 -39.597656 19.59375 -28.109375 C 19.59375 -16.648438 23.960938 -10.921875 32.703125 -10.921875 Z M 32.703125 -10.921875 "/></g></g></g><g fill="#142238" fill-opacity="1"><g transform="translate(469.470121, 110.821169)"><g><path d="M 29.171875 23.875 C 19.890625 23.875 13.035156 22.515625 8.609375 19.796875 C 4.191406 17.078125 1.984375 13.285156 1.984375 8.421875 C 1.984375 5.460938 2.925781 3.035156 4.8125 1.140625 C 6.707031 -0.742188 9.421875 -2.007812 12.953125 -2.65625 L 12.953125 -3.71875 C 11.046875 -4.875 9.675781 -6.15625 8.84375 -7.5625 C 8.007812 -8.976562 7.59375 -10.625 7.59375 -12.5 C 7.59375 -17.019531 10.535156 -20.0625 16.421875 -21.625 L 16.421875 -22.703125 C 13.398438 -24.429688 11.125 -26.578125 9.59375 -29.140625 C 8.0625 -31.710938 7.296875 -34.820312 7.296875 -38.46875 C 7.296875 -42.207031 8.15625 -45.492188 9.875 -48.328125 C 11.59375 -51.171875 14.109375 -53.378906 17.421875 -54.953125 C 20.734375 -56.535156 24.703125 -57.328125 29.328125 -57.328125 C 34.023438 -57.328125 37.765625 -56.515625 40.546875 -54.890625 C 42.285156 -57.398438 43.289062 -60.304688 43.5625 -63.609375 L 44.640625 -64.265625 L 54.78125 -61.765625 C 54.476562 -59.085938 53.695312 -56.835938 52.4375 -55.015625 C 51.175781 -53.191406 49.222656 -51.566406 46.578125 -50.140625 L 46.578125 -49.015625 C 49.734375 -46.234375 51.3125 -42.34375 51.3125 -37.34375 C 51.3125 -33.875 50.441406 -30.757812 48.703125 -28 C 46.972656 -25.25 44.453125 -23.070312 41.140625 -21.46875 C 37.828125 -19.875 33.890625 -19.078125 29.328125 -19.078125 L 27.1875 -19.125 C 25.820312 -19.195312 24.867188 -19.234375 24.328125 -19.234375 C 23.035156 -19.234375 22.023438 -18.882812 21.296875 -18.1875 C 20.566406 -17.488281 20.203125 -16.59375 20.203125 -15.5 C 20.203125 -14.3125 20.675781 -13.382812 21.625 -12.71875 C 22.582031 -12.0625 23.976562 -11.695312 25.8125 -11.625 L 38.40625 -11.171875 C 50.851562 -10.796875 57.078125 -5.441406 57.078125 4.890625 C 57.078125 8.535156 56.148438 11.773438 54.296875 14.609375 C 52.441406 17.453125 49.441406 19.707031 45.296875 21.375 C 41.148438 23.039062 35.773438 23.875 29.171875 23.875 Z M 29.328125 -28.96875 C 32.046875 -28.96875 34.171875 -29.765625 35.703125 -31.359375 C 37.234375 -32.960938 38 -35.242188 38 -38.203125 C 38 -41.160156 37.234375 -43.429688 35.703125 -45.015625 C 34.171875 -46.597656 32.046875 -47.390625 29.328125 -47.390625 C 26.578125 -47.390625 24.453125 -46.597656 22.953125 -45.015625 C 21.453125 -43.429688 20.703125 -41.160156 20.703125 -38.203125 C 20.703125 -35.210938 21.453125 -32.925781 22.953125 -31.34375 C 24.453125 -29.757812 26.578125 -28.96875 29.328125 -28.96875 Z M 29.171875 13.625 C 34.003906 13.625 37.515625 12.941406 39.703125 11.578125 C 41.898438 10.210938 43 8.445312 43 6.28125 C 43 4.507812 42.4375 3.207031 41.3125 2.375 C 40.195312 1.539062 38.414062 1.085938 35.96875 1.015625 L 24.84375 0.515625 C 24.46875 0.515625 24.117188 0.492188 23.796875 0.453125 C 23.472656 0.421875 23.160156 0.40625 22.859375 0.40625 C 20.472656 0.40625 18.660156 0.914062 17.421875 1.9375 C 16.179688 2.957031 15.5625 4.367188 15.5625 6.171875 C 15.5625 8.554688 16.695312 10.394531 18.96875 11.6875 C 21.25 12.976562 24.648438 13.625 29.171875 13.625 Z M 29.171875 13.625 "/></g></g><g transform="translate(527.978345, 110.821169)"><g><path d="M 15.15625 -63 C 12.601562 -63 10.523438 -63.769531 8.921875 -65.3125 C 7.328125 -66.863281 6.53125 -68.863281 6.53125 -71.3125 C 6.53125 -73.726562 7.328125 -75.707031 8.921875 -77.25 C 10.523438 -78.800781 12.601562 -79.578125 15.15625 -79.578125 C 16.851562 -79.578125 18.363281 -79.21875 19.6875 -78.5 C 21.007812 -77.789062 22.035156 -76.8125 22.765625 -75.5625 C 23.503906 -74.320312 23.875 -72.90625 23.875 -71.3125 C 23.875 -69.71875 23.503906 -68.289062 22.765625 -67.03125 C 22.035156 -65.769531 21.007812 -64.78125 19.6875 -64.0625 C 18.363281 -63.351562 16.851562 -63 15.15625 -63 Z M 8.109375 0 L 8.109375 -56.265625 L 22.234375 -56.265625 L 22.234375 0 Z M 8.109375 0 "/></g></g><g transform="translate(558.278157, 110.821169)"><g><path d="M 55.59375 -24.9375 L 19.4375 -24.9375 C 19.84375 -20.039062 21.234375 -16.476562 23.609375 -14.25 C 25.992188 -12.03125 29.242188 -10.921875 33.359375 -10.921875 C 36.585938 -10.921875 39.203125 -11.519531 41.203125 -12.71875 C 43.210938 -13.925781 44.832031 -15.753906 46.0625 -18.203125 L 47.140625 -18.203125 L 56.515625 -12.1875 C 54.679688 -8.25 51.910156 -5.050781 48.203125 -2.59375 C 44.492188 -0.144531 39.546875 1.078125 33.359375 1.078125 C 27.546875 1.078125 22.519531 -0.0234375 18.28125 -2.234375 C 14.050781 -4.453125 10.785156 -7.742188 8.484375 -12.109375 C 6.191406 -16.484375 5.046875 -21.816406 5.046875 -28.109375 C 5.046875 -34.503906 6.253906 -39.894531 8.671875 -44.28125 C 11.085938 -48.664062 14.351562 -51.9375 18.46875 -54.09375 C 22.582031 -56.25 27.207031 -57.328125 32.34375 -57.328125 C 40.300781 -57.328125 46.394531 -55.21875 50.625 -51 C 54.863281 -46.789062 56.984375 -40.601562 56.984375 -32.4375 C 56.984375 -29.476562 56.878906 -27.1875 56.671875 -25.5625 Z M 43.453125 -34.078125 C 43.316406 -38.359375 42.320312 -41.476562 40.46875 -43.4375 C 38.625 -45.394531 35.914062 -46.375 32.34375 -46.375 C 25.195312 -46.375 20.992188 -42.273438 19.734375 -34.078125 Z M 43.453125 -34.078125 "/></g></g><g transform="translate(619.43889, 110.821169)"><g><path d="M 26.328125 1.078125 C 22.484375 1.078125 18.960938 0.628906 15.765625 -0.265625 C 12.566406 -1.171875 9.835938 -2.414062 7.578125 -4 C 5.316406 -5.582031 3.640625 -7.394531 2.546875 -9.4375 L 10.40625 -17.90625 L 11.484375 -17.90625 C 13.347656 -15.382812 15.554688 -13.492188 18.109375 -12.234375 C 20.660156 -10.984375 23.429688 -10.359375 26.421875 -10.359375 C 29.179688 -10.359375 31.253906 -10.847656 32.640625 -11.828125 C 34.035156 -12.816406 34.734375 -14.226562 34.734375 -16.0625 C 34.734375 -17.488281 34.234375 -18.6875 33.234375 -19.65625 C 32.234375 -20.632812 30.609375 -21.394531 28.359375 -21.9375 L 20.921875 -23.71875 C 15.335938 -25.039062 11.257812 -27.070312 8.6875 -29.8125 C 6.125 -32.550781 4.84375 -36.03125 4.84375 -40.25 C 4.84375 -43.75 5.734375 -46.789062 7.515625 -49.375 C 9.304688 -51.957031 11.820312 -53.925781 15.0625 -55.28125 C 18.3125 -56.644531 22.097656 -57.328125 26.421875 -57.328125 C 31.492188 -57.328125 35.691406 -56.597656 39.015625 -55.140625 C 42.347656 -53.679688 44.953125 -51.726562 46.828125 -49.28125 L 39.28125 -41.109375 L 38.25 -41.109375 C 36.6875 -42.878906 34.925781 -44.171875 32.96875 -44.984375 C 31.019531 -45.804688 28.835938 -46.21875 26.421875 -46.21875 C 20.847656 -46.21875 18.0625 -44.484375 18.0625 -41.015625 C 18.0625 -39.546875 18.578125 -38.351562 19.609375 -37.4375 C 20.648438 -36.519531 22.476562 -35.773438 25.09375 -35.203125 L 32.03125 -33.671875 C 37.75 -32.441406 41.925781 -30.472656 44.5625 -27.765625 C 47.195312 -25.066406 48.515625 -21.441406 48.515625 -16.890625 C 48.515625 -13.316406 47.628906 -10.164062 45.859375 -7.4375 C 44.085938 -4.71875 41.535156 -2.617188 38.203125 -1.140625 C 34.867188 0.335938 30.910156 1.078125 26.328125 1.078125 Z M 26.328125 1.078125 "/></g></g></g></g></g></svg>